<svg width="256" height="256" viewBox="0 0 256 256" fill="none" xmlns="http://www.w3.org/2000/svg">
<rect width="256" height="256" fill="url(#paint0_linear_1528_392)"/>
<path d="M30.2589 219H120.307V201.976H87.3789V54.584H71.6989C62.7389 59.96 52.2109 63.768 37.6509 66.456V79.448H66.7709V201.976H30.2589V219Z" fill="url(#paint1_linear_1528_392)"/>
<path d="M135.091 136.26C150.481 136.26 159.571 126.99 159.571 116.1C159.571 106.47 154.261 101.34 146.161 98.01L137.431 94.32C131.761 92.07 127.081 90.36 127.081 85.59C127.081 81.18 130.771 78.57 136.621 78.57C142.111 78.57 146.521 80.55 150.751 84.06L157.501 75.69C152.101 70.2 144.361 67.14 136.621 67.14C123.121 67.14 113.581 75.51 113.581 86.4C113.581 96.12 120.331 101.52 127.081 104.31L135.991 108.09C141.931 110.61 145.981 112.14 145.981 117.09C145.981 121.77 142.291 124.74 135.361 124.74C129.511 124.74 123.211 121.77 118.441 117.36L110.791 126.54C117.271 132.75 126.181 136.26 135.091 136.26ZM171.363 135H183.333V107.19C183.333 100.89 182.253 91.62 181.623 85.32H181.983L187.293 100.98L197.643 128.97H205.293L215.553 100.98L220.953 85.32H221.403C220.683 91.62 219.693 100.89 219.693 107.19V135H231.843V68.31H217.083L206.013 99.54C204.573 103.68 203.403 108.09 201.963 112.32H201.513C200.163 108.09 198.903 103.68 197.463 99.54L186.123 68.31H171.363V135Z" fill="url(#paint2_linear_1528_392)"/>
<path d="M231 180.081V157.141L116.145 157.141V180.081L231 180.081Z" fill="url(#paint3_linear_1528_392)"/>
<defs>
<linearGradient id="paint0_linear_1528_392" x1="82.5806" y1="15.3293" x2="82.5806" y2="256" gradientUnits="userSpaceOnUse">
<stop stop-color="#F8FBFF"/>
<stop offset="1" stop-color="#E2E9F5"/>
</linearGradient>
<linearGradient id="paint1_linear_1528_392" x1="29.7686" y1="337.168" x2="184.385" y2="298.361" gradientUnits="userSpaceOnUse">
<stop stop-color="#2D79E6"/>
<stop offset="1" stop-color="#053476"/>
</linearGradient>
<linearGradient id="paint2_linear_1528_392" x1="98.4194" y1="264.611" x2="316.798" y2="141.64" gradientUnits="userSpaceOnUse">
<stop stop-color="#2D79E6"/>
<stop offset="1" stop-color="#053476"/>
</linearGradient>
<linearGradient id="paint3_linear_1528_392" x1="343.587" y1="181.588" x2="339.812" y2="132.137" gradientUnits="userSpaceOnUse">
<stop stop-color="#2D79E6"/>
<stop offset="1" stop-color="#053476"/>
</linearGradient>
</defs>
</svg>
